<svg xmlns="http://www.w3.org/2000/svg" xmlns:xlink="http://www.w3.org/1999/xlink" version="1.1" x="0px" y="0px" viewBox="0 0 100 125" enable-background="new 0 0 100 100" xml:space="preserve"><g><g><polygon points="47.117,12.985 45.537,12.87 46.633,17.734 48.222,17.851   "/></g><path d="M61.378,47.073c0.06-0.549,0.105-1.087,0.132-1.605C61.303,45.945,61.262,46.493,61.378,47.073z"/><path d="M56.347,54.824c-0.224,0.713-0.175,1.313,0.041,1.823c0.832-0.519,1.54-1.049,2.031-1.582   c0.921-1.001,1.579-2.295,2.051-3.694C58.828,51.565,56.995,52.763,56.347,54.824z"/><path d="M79.07,49.229c0,0,3.591-3.591-0.748-7.183c-4.34-3.591-6.285-0.15-6.285-0.15s-1.646-6.584-2.693-7.332   c-1.048-0.748-4.789-1.197-4.789-1.197l-3.145,0.652l0.603,4.021c0,0,2.392-1.081,3.889,0.565c1.496,1.646,1.496,2.993,1.496,2.993   s-2.394-0.299-3.891,0.449c-0.599,0.299-1.313,0.793-1.958,1.36c-0.015-0.941-0.072-1.734-0.137-2.258   c-0.299-2.394-5.986-31.275-5.986-31.275l-2.843,0.299c0,0,2.993,23.644,4.04,28.283c1.047,4.639,1.047,7.482-3.142,13.767   c-4.19,6.285-14.815,7.183-14.815,7.183s-5.089,0.299-10.326-2.544c-5.238-2.843-8.53-13.169-8.53-15.413   c0-2.244,4.938-31.126,4.938-31.126l-4.34-0.15c0,0-0.299,0.599-1.496,5.836c-1.197,5.237-5.088,21.997-3.741,30.228   c1.347,8.23,15.413,14.366,17.359,15.413c1.945,1.047,3.293,5.538,3.443,7.334c0.15,1.796-0.749,11.373-0.749,11.373l-12.121,5.986   c0,0,5.836,4.19,15.115,3.442c9.279-0.748,14.515-3.591,14.515-3.591l-13.318-6.135l-0.299-10.026c0,0,1.496-5.837,1.945-6.735   c0.37-0.739,9.534-3.3,14.696-6.267c0.05,0.783,0.119,1.329,0.119,1.329s0.599,1.197,2.095,1.945c1.496,0.748,0.3,4.79,3.143,6.436   c2.843,1.646,4.19,1.347,4.19,1.347s-3.292,9.128,4.34,8.829c7.632-0.299,4.489-8.679,4.489-8.679s3.442,0.298,5.237-3.443   c1.796-3.741-0.898-4.489-0.898-4.489s4.938,0.299,5.986-2.693C85.504,54.617,83.559,47.883,79.07,49.229z M70.713,45.247   c1.036-3.297,5.109-4.387,6.572-2.685c1.462,1.704,1.416,3.991,1.416,3.991s-0.145,2.728-2.318,2.86   C74.208,49.545,69.679,48.543,70.713,45.247z M72.62,51.219c1.624,1.893,1.573,4.433,1.573,4.433s-0.16,3.03-2.576,3.177   c-2.415,0.146-7.446-0.966-6.297-4.627C66.471,50.54,70.995,49.328,72.62,51.219z M61.51,45.467c0.063-0.145,0.106-0.3,0.201-0.428   c1.347-1.796,3.592-2.245,3.592-2.245s2.693-0.449,3.292,1.646c0.598,2.095,0.598,6.734-2.843,6.435   c-2.394-0.208-4.032-2.078-4.374-3.803C61.262,46.493,61.303,45.945,61.51,45.467z M56.388,56.648   c-0.216-0.511-0.265-1.11-0.041-1.823c0.648-2.061,2.481-3.259,4.123-3.452c0.984-0.117,1.901,0.129,2.449,0.767   c1.462,1.704,1.416,3.991,1.416,3.991s-0.144,2.728-2.318,2.86C60.313,59.093,57.174,58.495,56.388,56.648z M61.262,60.453   c1.347-1.796,3.591-2.245,3.591-2.245s2.693-0.449,3.292,1.646c0.598,2.095,0.598,6.734-2.843,6.434   C61.861,65.99,59.915,62.248,61.262,60.453z M74.194,71.664c0,0-0.16,3.03-2.576,3.177c-2.415,0.146-7.446-0.966-6.297-4.627   c1.15-3.661,5.675-4.873,7.299-2.982C74.244,69.125,74.194,71.664,74.194,71.664z M75.485,66.173   c-2.174,0.131-6.704-0.87-5.669-4.166c1.036-3.297,5.109-4.387,6.571-2.685c1.462,1.704,1.416,3.991,1.416,3.991   S77.659,66.041,75.485,66.173z M79.519,58.956c-3.442-0.299-5.387-4.04-4.04-5.836c1.347-1.796,3.591-2.245,3.591-2.245   s2.694-0.449,3.292,1.646C82.961,54.617,82.961,59.256,79.519,58.956z"/><path d="M53.181,29.626c0.299-0.299-29.181,0-29.181,0S21.905,40.7,22.953,43.244s4.638,11.522,9.278,13.019   c4.64,1.496,8.63,0.919,13.02-1.347c4.639-2.394,9.427-8.679,9.577-10.625C54.977,42.346,52.882,29.926,53.181,29.626z    M49.161,31.892l1.593,0.116l1.429,8.328l-1.601-0.118L49.161,31.892z"/></g><text x="0" y="115" fill="#000000" font-size="5px" font-weight="bold" font-family="'Helvetica Neue', Helvetica, Arial-Unicode, Arial, Sans-serif">Created by Keops Ferraz Teixeira</text><text x="0" y="120" fill="#000000" font-size="5px" font-weight="bold" font-family="'Helvetica Neue', Helvetica, Arial-Unicode, Arial, Sans-serif">from the Noun Project</text></svg>