<svg width="65" height="38" viewBox="0 0 65 38" fill="none" xmlns="http://www.w3.org/2000/svg">
<g clip-path="url(#clip0_2056_468)">
<path fill-rule="evenodd" clip-rule="evenodd" d="M43.9 2.99993C42.8 3.69993 40.6 4.29993 39.7 5.19993C39.3 3.49993 42.7 2.09993 43.9 2.99993Z" fill="#FF6365"/>
<path fill-rule="evenodd" clip-rule="evenodd" d="M44.9 10.7C42.4 9.9 41.3 12.1 40.1 12.8C39.3 10.2 43.9 8.5 44.9 10.7Z" fill="#FF6365"/>
<path fill-rule="evenodd" clip-rule="evenodd" d="M49.2 20.6C47.7 21.5 46.5 22.5 46.2 23.9C44.8 22.6 46.9 21 48.2 20C48.5 20.2 49 19.9 49.2 20.6Z" fill="#FF6365"/>
<path fill-rule="evenodd" clip-rule="evenodd" d="M39.5 20.1999C38.8 20.5999 38.4 20.2999 38 19.9999C36.1 20.3999 36.3 21.9999 36.6 22.8999C36.4 22.7999 36.1 22.8999 35.8 23.0999C34.7 21.0999 36.6 18.3999 38.6 18.9999C38.9 19.0999 39.5 19.5999 39.5 20.1999Z" fill="#FF6365"/>
<path fill-rule="evenodd" clip-rule="evenodd" d="M35.3 10.6001C35.4 11.1001 35.3 10.9001 35.6 11.3001C34.3 11.6001 32.7 11.0001 31.6 12.7001C31.3 10.5001 33.8 9.90009 35.3 10.6001Z" fill="#FF6365"/>
<path fill-rule="evenodd" clip-rule="evenodd" d="M31.3 6.00001C31.4 6.40001 31.1 6.60001 31.2 7.10001C30 6.70001 28.1 6.90001 27.3 8.30001C26.7 6.00001 30 5.00001 31.3 6.00001Z" fill="#FF6365"/>
<path fill-rule="evenodd" clip-rule="evenodd" d="M27.6 13.3001C26.4 13.5001 25 14.9001 25.9 15.1001C25.9 15.6001 25.2 15.3001 25 15.5001C24.2 14.0001 26.7 11.6001 27.6 13.3001Z" fill="#FF6365"/>
<path fill-rule="evenodd" clip-rule="evenodd" d="M31 21.2C30.1 22.5 28.4 23.4 28.4 25C27 23.1 29.7 21 31 21.2Z" fill="#FF6365"/>
<path fill-rule="evenodd" clip-rule="evenodd" d="M20.1 15.6001C19.6 15.8001 19.1 15.9001 18.8 15.8001C18 16.4001 18.5 17.6001 17.5 18.1001C16.1 16.7001 18.7 13.5001 20.1 15.6001Z" fill="#FF6365"/>
<path fill-rule="evenodd" clip-rule="evenodd" d="M20.6 24.1001C20.1 25.0001 17.5 24.8001 17.9 26.5001C17.2 26.6001 17.7 25.9001 17.2 25.4001C17.8 24.3001 19.5 23.9001 20.6 24.1001Z" fill="#FF6365"/>
<path fill-rule="evenodd" clip-rule="evenodd" d="M12.7 21.7001C12.1 22.2001 10.9 22.9001 10.6 23.8001C9.39996 22.0001 11.4 21.0001 12.7 21.7001Z" fill="#FF6365"/>
<path fill-rule="evenodd" clip-rule="evenodd" d="M12.5 29.0999C12.6 29.2999 12.5 29.3999 12.5 29.5999C11.4 29.5999 10.6 29.6999 10.8 30.8999C9.8 30.8999 9.9 29.8999 10 29.0999C11.1 28.4999 11.7 28.9999 12.5 29.0999Z" fill="#FF6365"/>
<path fill-rule="evenodd" clip-rule="evenodd" d="M2.89998 27C2.59998 26.4 2.89998 26 2.59998 25.4C3.29998 24.6 4.99998 24.2 5.49998 25.6C4.79998 26.1 4.59998 25 3.89998 25.6C3.19998 25.9 3.69998 26.7 2.89998 27Z" fill="#FF6365"/>
<path fill-rule="evenodd" clip-rule="evenodd" d="M62.7 12.2001C59.6 9.8001 55.3 10.5001 50.6 12.1001C50.7 13.1001 51.4 14.2001 51 15.0001C52.7 15.9001 54.6 16.7001 55.7 18.5001C58.1 22.4001 54.8 25.8001 51.9 28.1001C50.8 28.1001 48.7 28.8001 47.5 27.9001C46.8 30.7001 42.4 33.2001 39.4 32.1001C39.5 35.9001 34.4 37.9001 31.6 35.7001C27.9 38.1001 23.6 37.8001 21.9 34.6001C21.4 35.1001 21.5 34.4001 21 34.3001C19.9 33.9001 18.2 33.9001 17.4 32.5001C17.2 33.2001 16 33.8001 16.5 34.5001C14.4 35.6001 11.4 36.3001 9.60001 34.6001C9.30001 34.7001 9.40001 34.9001 9.10001 35.0001C7.50001 34.2001 6.10001 31.7001 6.00001 29.6001C5.50001 29.5001 5.30001 29.9001 4.60001 30.0001C3.40001 29.5001 2.80002 29.5001 1.80002 28.8001C-1.99998 24.1001 4.00001 19.8001 7.10001 22.8001C7.70001 20.1001 11 17.5001 14 18.6001C14.2 15.5001 15.6 12.3001 19.8 11.8001C20.4 12.1001 21 12.3001 21.7 12.4001C22.2 11.7001 22.4 10.9001 23.5 10.4001C24.2 9.5001 23.3 8.6001 23.4 7.8001C23.6 5.8001 25.9 4.3001 27.5 3.0001C30.6 2.8001 33.3 2.7001 36.1 4.9001C36.7 4.5001 37 3.9001 37 3.3001C38.8 1.1001 42.2 0.300098 44.7 0.100098C45.6 0.900098 47 0.900097 47.9 2.1001C49.1 3.7001 49 5.9001 48.5 7.5001C48.6 7.7001 48.8 8.0001 48.6 8.2001C48.9 8.7001 49 9.5001 49.4 9.6001C49.7 10.0001 49 10.0001 49.4 10.5001C54.6 9.6001 59.9 7.6001 63.7 10.5001C64.3 10.0001 64.4 10.6001 64.8 10.6001C65.4 12.0001 63.9 12.5001 62.7 12.2001ZM61.8 10.1001C62.2 10.9001 62.9 11.0001 63.6 11.1001C63.5 10.9001 63.5 10.8001 63.4 10.7001C62.9 10.7001 62.5 9.9001 61.8 10.1001ZM54.1 24.5001C54.1 23.6001 54.7 22.9001 55.2 22.1001C54.9 19.5001 53.4 17.6001 51.5 17.0001C49.8 17.4001 49.6 18.5001 48.2 19.3001C46.7 20.2001 45.4 20.4001 43.6 20.6001C42.4 25.7001 50.1 28.6001 54.1 24.5001ZM45.1 1.4001C44 1.0001 40.5 1.7001 39.1 3.0001C37.3 4.6001 36.6 7.9001 38.9 9.5001C40.5 7.6001 44.4 6.6001 46.1 7.6001C48 5.6001 47.6 2.3001 45.1 1.4001ZM45.4 8.6001C44.9 9.4001 44.5 8.4001 43.9 8.5001C38.9 8.5001 38.1 13.3001 39.5 16.4001C40.3 18.1001 42.8 19.5001 44.2 19.1001C45.8 18.7001 48.7 16.3001 49 14.7001C49.2 13.4001 48.3 12.4001 48 11.2001C47.4 10.0001 46.5 9.1001 45.4 8.6001ZM45.6 26.9001C44.5 26.6001 43.8 25.3001 42.9 24.4001C42.3 26.3001 38.6 27.3001 36.7 26.5001C34.1 32.1001 46.1 32.7001 45.6 26.9001ZM37.2 10.5001C37.4 10.4001 37.8 10.3001 37.7 10.1001C35.7 8.9001 33.9 7.5001 31.6 9.2001C29.7 10.6001 30.1 15.4001 32.3 17.0001C33 17.5001 33.5 16.8001 33.7 17.4001C34.7 16.8001 36.5 16.0001 37 14.9001C37.7 14.7001 37.5 15.8001 38 15.5001C37 13.4001 37.8 12.0001 37.9 10.4001C37.8 10.5001 37.4 10.7001 37.2 10.5001ZM42.4 20.3001C40.9 19.0001 39.5 18.9001 38.4 16.9001C33.7 17.3001 32.6 21.9001 36 25.2001C37.7 25.8001 40.6 25.8001 41.8 23.9001C41.8 23.4001 41.3 23.2001 41.6 22.7001C42 22.4001 42 22.9001 42.3 22.7001C42 21.8001 42.3 21.1001 42.4 20.3001ZM35.2 6.3001C35.7 6.9001 35.3 7.2001 35.4 7.6001C36.3 7.4001 36.1 5.8001 35.2 6.3001ZM25.3 9.3001C27 8.8001 28.5 9.1001 29.7 10.0001C29.7 8.2001 32.8 7.8001 33.6 6.7001C31.3 2.9001 24.5 4.3001 25.3 9.3001ZM32.7 22.1001C32.4 21.0001 33 20.0001 32.5 19.2001C32 18.7001 32.8 19.8001 32.4 19.8001C31.9 19.9001 31.4 19.9001 31.3 19.2001C30.5 19.1001 29.3 19.8001 28.5 19.7001C28.1 20.7001 27.1 21.0001 26.8 21.9001C25.4 25.7001 31 29.4001 33.8 27.9001C34.3 27.3001 34.7 26.7001 35.3 26.2001C34.1 25.2001 33.1 23.6001 32.7 22.1001ZM27.3 10.6001C21.6 10.6001 22.7 18.6001 26.5 19.8001C26.8 19.7001 27.2 19.0001 27.5 18.5001C28.4 18.5001 29.9 18.2001 30.7 17.3001C29.5 15.4001 28.9 13.3001 29 11.3001C28.2 11.7001 27.9 11.1001 27.3 10.6001ZM38 31.8001C36.5 31.6001 35.2 31.0001 33.9 30.2001C34.1 30.6001 33.8 30.7001 33.5 30.9001C34.4 32.7001 32.8 33.4001 32.7 34.8001C34.5 36.1001 38.5 35.1001 38 31.8001ZM31.8 30.2001C28.7 28.1001 21.4 30.1001 24.2 35.5001C26.8 37.2001 32.1 35.0001 32.5 31.9001C32.3 31.3001 32 30.8001 31.8 30.2001ZM22.5 18.0001C22.2 17.2001 22.2 15.1001 21.9 14.5001C21.6 13.8001 20.4 13.8001 20 13.0001C15.2 13.4001 14.4 18.3001 17.8 21.0001C17.8 21.6001 16.6 21.0001 16.9 21.8001C19.1 19.9001 23.1 21.9001 23.2 18.7001C23 18.4001 22.7 18.5001 22.5 18.0001ZM24.6 29.1001C25.1 28.5001 26 28.4001 26.7 28.2001C25.8 26.5001 24.3 27.7001 24.6 29.1001ZM15.1 27.0001C15.3 27.4001 17 28.5001 18.1 28.7001C20.6 29.2001 24.5 27.3001 24.3 25.5001C23 21.2001 20 21.5001 16.8 22.9001C16.6 24.7001 14 25.0001 15.1 27.0001ZM18.2 30.3001C18.3 31.1001 19.2 31.8001 19.4 32.6001C20.2 32.9001 21.1 32.9001 22 32.9001C22.3 31.7001 23.1 30.1001 24.1 29.7001C23.7 29.4001 24.1 28.8001 23.8 29.0001C22.6 30.7001 19.8 30.2001 18.2 30.3001ZM15.5 22.6001C15.9 20.8001 13.5 20.6001 12.5 19.5001C9.20001 19.7001 8.10001 22.5001 9.50001 24.7001C9.90001 25.3001 10.7 25.4001 10.9 26.2001C11.8 26.0001 12.5 26.6001 13.4 26.3001C14.3 25.2001 14 23.5001 15.5 22.6001ZM14 27.3001C12.6 27.9001 11.3 26.7001 10.3 27.3001C10.5 27.7001 9.40002 28.0001 8.90002 28.5001C8.60002 29.7001 8.20002 31.3001 8.80002 32.4001C10.1 34.9001 15.8 34.4001 15.9 31.3001C16.1 31.2001 16.3 31.2001 16.4 31.3001C16.3 30.6001 16.7 30.2001 16.5 29.5001C15.5 29.2001 14.7 28.5001 14 27.3001ZM7.50001 24.1001C7.10001 24.3001 7.00001 23.7001 6.50001 24.2001C6.30001 23.3001 5.50001 23.7001 5.20001 23.2001C3.30001 23.6001 1.70001 24.2001 2.10001 25.9001C2.50001 27.6001 4.60002 29.4001 5.90002 28.1001C6.00002 28.3001 6.10002 28.6001 6.40002 28.4001C7.00002 27.4001 7.80001 26.5001 9.20001 25.8001C8.60001 25.3001 7.90001 25.0001 7.50001 24.1001Z" fill="#FF6365"/>
</g>
<defs>
<clipPath id="clip0_2056_468">
<rect width="65" height="38" fill="white"/>
</clipPath>
</defs>
</svg>
